[img]http://i.imgur.com/6Pu9c.jpg[/img]

[code]

Killing.Them.Softly.2012.480p.BDRip.XViD.AC3-26k
 
http://www.imdb.com/title/tt1764234/

Plot:

Jackie Cogan is an enforcer hired to restore order after three dumb guys rob a Mob protected card game, 
causing the local criminal economy to collapse.

Sources - VIDEO: Killing.Them.Softly.2012.1080p.BluRay.AVC.DTS-HD.MA.5.1-PublicHD ..... thanks .... :P
          AUDIO: Killing.Them.Softly.2012.1080p.BluRay.AVC.DTS-HD.MA.5.1-PublicHD ..... thanks .... :P
          Subs : ENG.SRT IN TORRENT FILE....  
 
Format                                   : AVI
Format/Info                              : Audio Video Interleave
File size                                : 1.71 GiB
Duration                                 : 1h 37mn
Overall bit rate                         : 2 519 Kbps

Video
ID                                       : 0
Format                                   : MPEG-4 Visual
Format profile                           : Advanced Simple@L5
Format settings, BVOP                    : 2
Format settings, QPel                    : No
Format settings, GMC                     : No warppoints
Format settings, Matrix                  : Default (H.263)
Codec ID                                 : XVID
Codec ID/Hint                            : XviD
Duration                                 : 1h 37mn
Bit rate                                 : 2 000 Kbps
Width                                    : 720 pixels
Height                                   : 304 pixels
Display aspect ratio                     : 2.35:1
Frame rate                               : 24.000 fps
Color space                              : YUV
Chroma subsampling                       : 4:2:0
Bit depth                                : 8 bits
Scan type                                : Progressive
Compression mode                         : Lossy
Bits/(Pixel*Frame)                       : 0.381
Stream size                              : 1.36 GiB (79%)
Writing library                          : XviD 1.2.1 (UTC 2008-12-04)

Audio
ID                                       : 1
Format                                   : AC-3
Format/Info                              : Audio Coding 3
Mode extension                           : CM (complete main)
Format settings, Endianness              : Big
Codec ID                                 : 2000
Duration                                 : 1h 37mn
Bit rate mode                            : Constant
Bit rate                                 : 512 Kbps
Channel(s)                               : 6 channels
Channel positions                        : Front: L C R, Side: L R, LFE
Sampling rate                            : 48.0 KHz
Bit depth                                : 16 bits
Compression mode                         : Lossy
Stream size                              : 356 MiB (20%)
Alignment                                : Aligned on interleaves
Interleave, duration                     : 64 ms (1.54 video frames)
Interleave, preload duration             : 192 ms
Title                                    : 512 

Notes -

Took the BD made a script to make magic happen and this is the outcome.. enjoy

[/code]

Screens:

[img]http://i.imgur.com/IHxAF.png[/img]
[img]http://i.imgur.com/ktIQC.png[/img]
[img]http://i.imgur.com/Jny7w.png[/img]
[img]http://i.imgur.com/wF8O1.png[/img]
[img]http://i.imgur.com/CnsQ6.jpg[/img]
[img]http://imageshack.us/a/img267/882/67896762.png[/img]
[img]http://imageshack.us/a/img705/2618/74886821.png[/img]
[img]http://imageshack.us/a/img543/4387/48315489.png[/img]
[img]http://imageshack.us/a/img163/1854/79428662.png[/img]
[img]http://imageshack.us/a/img405/294/98283336.png[/img]

Greetz:
SILENT-HD|CM8|RX|VISION|HDSCENE|xTriLL|ADTRG|CRYS|REMIXHD|HS|Tommiecook
BIDA|RX|REFILL|INSPiRAL|AXED|HOPE|Anonymous|GooN|NOIR|Blackjesus|Gabroo Punjab Deh
|UNiQUE|RESiSTANCE|TRiNiTY|LEGION

To all the people who have helped me, you know who you are

Anything to offer email us @: 26k@hushmail.me 